<svg width="358" height="216" viewBox="0 0 358 216" fill="none" xmlns="http://www.w3.org/2000/svg">
<path d="M617.342 315.711C618.579 259.548 604.458 204.114 576.501 155.388C548.544 106.663 507.814 66.4955 458.703 39.2202C409.593 11.9449 353.967 -1.40312 297.827 0.616203C241.687 2.63554 187.165 19.9456 140.141 50.6788C93.117 81.412 55.3775 124.402 30.9937 175.01C6.61003 225.618 -3.49224 281.924 1.7768 337.853C7.04585 393.781 27.4862 447.209 60.8926 492.373C94.2991 537.537 139.403 572.722 191.34 594.132L243.759 466.975C214.977 455.11 189.982 435.612 171.469 410.583C152.956 385.555 141.628 355.946 138.708 324.952C135.788 293.958 141.387 262.755 154.9 234.709C168.412 206.664 189.327 182.84 215.386 165.808C241.445 148.777 271.66 139.184 302.771 138.065C333.882 136.946 364.709 144.343 391.924 159.458C419.14 174.574 441.712 196.833 457.204 223.836C472.697 250.838 480.523 281.558 479.837 312.682L617.342 315.711Z" fill="#3E85F3" fill-opacity="0.1"/>
</svg>
