<svg width="165" height="222" viewBox="0 0 165 222" fill="none" xmlns="http://www.w3.org/2000/svg">
<path d="M-43.488 -221.604C-3.18187 -219.097 35.6747 -205.632 68.8895 -182.661C102.104 -159.691 128.417 -128.087 144.988 -91.2593C161.559 -54.4316 167.759 -13.7783 162.921 26.3149C158.082 66.408 142.388 104.419 117.531 136.247C92.6747 168.075 59.5992 192.512 21.8732 206.921C-15.8528 221.33 -56.7971 225.165 -96.5425 218.011C-136.288 210.857 -173.326 192.987 -203.66 166.327C-233.994 139.668 -256.473 105.232 -268.672 66.7348L-174.417 36.868C-167.657 58.2023 -155.2 77.2857 -138.389 92.0595C-121.579 106.833 -101.054 116.737 -79.0278 120.701C-57.002 124.665 -34.3118 122.54 -13.4051 114.555C7.50154 106.57 25.8311 93.0279 39.6059 75.3897C53.3808 57.7515 62.0781 36.6869 64.7595 14.4684C67.4409 -7.75011 64.0047 -30.2791 54.8215 -50.6879C45.6383 -71.0967 31.0567 -88.6107 12.65 -101.34C-5.75675 -114.07 -27.29 -121.532 -49.6265 -122.922L-43.488 -221.604Z" fill="#3E85F3" fill-opacity="0.1"/>
</svg>
