<svg aria-hidden="true" version="1.1" xmlns="http://www.w3.org/2000/svg" xmlns:xlink="http://www.w3.org/1999/xlink">
    <defs>
        <symbol id="icon-plus-clear" viewBox="0 0 24 24">
            <path d="M12 5V19M5 12H19" stroke="#111111" stroke-width="2" stroke-linecap="round" stroke-linejoin="round"/>
        </symbol>
        <symbol id="icon-plus-circle" viewBox="0 0 22 22">
            <path d="M11 7V15M7 11H15M21 11C21 16.5228 16.5228 21 11 21C5.47715 21 1 16.5228 1 11C1 5.47715 5.47715 1 11 1C16.5228 1 21 5.47715 21 11Z" stroke="#111111" stroke-width="2" stroke-linecap="round" stroke-linejoin="round"/>
        </symbol>
        <symbol id="icon-trash" viewBox="0 0 16 16">
            <path d="M6 2H10" stroke="#111111" stroke-width="1.3" stroke-linecap="round" stroke-linejoin="round"/>
            <path d="M2 4H14" stroke="#111111" stroke-width="1.3" stroke-linecap="round" stroke-linejoin="round"/>
            <path d="M3.33334 4L3.73393 10.0089C3.80831 11.1245 3.8455 11.6823 4.0278 12.1304C4.35879 12.9441 5.02973 13.5718 5.86358 13.8479C6.32286 14 6.88191 14 8.00001 14V14C9.11811 14 9.67716 14 10.1364 13.8479C10.9703 13.5718 11.6412 12.9441 11.9722 12.1304C12.1545 11.6823 12.1917 11.1245 12.2661 10.0089L12.6667 4" stroke="#111111" stroke-width="1.3" stroke-linecap="round" stroke-linejoin="round"/>
        </symbol>
        <symbol id="icon-pencil" viewBox="0 0 16 16">
            <path d="M1.66664 14.3333L5.36615 12.9104C5.60278 12.8194 5.72109 12.7739 5.83179 12.7145C5.93011 12.6617 6.02384 12.6008 6.112 12.5324C6.21126 12.4554 6.30089 12.3657 6.48016 12.1865L14 4.66665C14.7364 3.93027 14.7364 2.73636 14 1.99998C13.2636 1.2636 12.0697 1.2636 11.3333 1.99998L3.8135 9.51979C3.63423 9.69906 3.54459 9.7887 3.46757 9.88795C3.39916 9.97611 3.33824 10.0698 3.28546 10.1682C3.22605 10.2789 3.18054 10.3972 3.08953 10.6338L1.66664 14.3333ZM1.66664 14.3333L3.03872 10.766C3.13691 10.5107 3.186 10.383 3.2702 10.3246C3.34379 10.2735 3.43484 10.2542 3.52284 10.271C3.62353 10.2902 3.72023 10.3869 3.91363 10.5803L5.41969 12.0863C5.61309 12.2797 5.70979 12.3764 5.72902 12.4771C5.74582 12.5651 5.7265 12.6562 5.67541 12.7298C5.61694 12.814 5.4893 12.8631 5.23402 12.9613L1.66664 14.3333Z" stroke="#111111" stroke-width="1.3" stroke-linecap="round" stroke-linejoin="round"/>
        </symbol>
        <symbol id="icon-arrow-circle-broken-right" viewBox="0 0 16 16">
            <g clip-path="url(#clip0_36_723)">
                <path d="M2.22528 4.66665C3.37798 2.67398 5.53246 1.33331 8.00007 1.33331C11.682 1.33331 14.6667 4.31808 14.6667 7.99998C14.6667 11.6819 11.682 14.6666 8.00007 14.6666C5.53246 14.6666 3.37798 13.326 2.22528 11.3333" stroke="#111111" stroke-width="1.3" stroke-linecap="round" stroke-linejoin="round"/>
                <path d="M8 10.6666L10.6667 7.99998L8 5.33331" stroke="#111111" stroke-width="1.3" stroke-linecap="round" stroke-linejoin="round"/>
                <path d="M1.33331 8L10.6666 8" stroke="#111111" stroke-width="1.3" stroke-linecap="round" stroke-linejoin="round"/>
            </g>
            <defs>
                <clipPath id="clip0_36_723">
                    <rect width="16" height="16" fill="white"/>
                </clipPath>
            </defs>
        </symbol>
</defs>
</svg>