<svg aria-hidden="true" version="1.1" xmlns="http://www.w3.org/2000/svg" xmlns:xlink="http://www.w3.org/1999/xlink">
    <defs>
        <symbol id="icon-plus-clear" viewBox="0 0 32 32">
            <path stroke-linejoin="round" stroke-linecap="round" stroke-miterlimit="4" stroke-width="2.6667" d="M16 6.667v18.667M6.667 16h18.667"></path>
        </symbol>
        <symbol id="icon-plus-circle" viewBox="0 0 32 32">
            <path stroke-linejoin="round" stroke-linecap="round" stroke-miterlimit="4" stroke-width="2.9091" d="M16 10.182v11.636M10.182 16h11.636M30.545 16c0 8.033-6.512 14.545-14.545 14.545s-14.545-6.512-14.545-14.545c0-8.033 6.512-14.545 14.545-14.545s14.545 6.512 14.545 14.545z"></path>
        </symbol>
        <symbol id="icon-trash" viewBox="0 0 32 32">
            <path stroke-linejoin="round" stroke-linecap="round" stroke-miterlimit="4" stroke-width="2.6" d="M12 4h8"></path>
            <path stroke-linejoin="round" stroke-linecap="round" stroke-miterlimit="4" stroke-width="2.6" d="M4 8h24"></path>
            <path stroke-linejoin="round" stroke-linecap="round" stroke-miterlimit="4" stroke-width="2.6" d="M6.667 8l0.801 12.018c0.149 2.231 0.223 3.347 0.588 4.243 0.662 1.627 2.004 2.883 3.672 3.435 0.919 0.304 2.037 0.304 4.273 0.304v0c2.236 0 3.354 0 4.273-0.304 1.668-0.552 3.010-1.808 3.672-3.435 0.365-0.896 0.439-2.012 0.588-4.243l0.801-12.018"></path>
        </symbol>
        <symbol id="icon-pencil" viewBox="0 0 32 32">
            <path stroke-linejoin="round" stroke-linecap="round" stroke-miterlimit="4" stroke-width="2.6" d="M3.333 28.667l7.399-2.846c0.473-0.182 0.71-0.273 0.931-0.392 0.197-0.106 0.384-0.227 0.56-0.364 0.199-0.154 0.378-0.333 0.736-0.692l15.040-15.040c1.473-1.473 1.473-3.861 0-5.333s-3.861-1.473-5.333 0l-15.040 15.040c-0.359 0.359-0.538 0.538-0.692 0.736-0.137 0.176-0.259 0.364-0.364 0.561-0.119 0.221-0.21 0.458-0.392 0.931l-2.846 7.399zM3.333 28.667l2.744-7.135c0.196-0.511 0.295-0.766 0.463-0.883 0.147-0.102 0.329-0.141 0.505-0.107 0.201 0.038 0.395 0.232 0.782 0.619l3.012 3.012c0.387 0.387 0.58 0.58 0.619 0.782 0.034 0.176-0.005 0.358-0.107 0.505-0.117 0.168-0.372 0.267-0.883 0.463l-7.135 2.744z"></path>
        </symbol>
        <symbol id="icon-arrow-circle-broken-right" viewBox="0 0 32 32">
            <path stroke-linejoin="round" stroke-linecap="round" stroke-miterlimit="4" stroke-width="2.6" d="M4.451 9.333c2.305-3.985 6.614-6.667 11.55-6.667 7.364 0 13.333 5.97 13.333 13.333s-5.969 13.333-13.333 13.333c-4.935 0-9.244-2.681-11.55-6.667"></path>
            <path stroke-linejoin="round" stroke-linecap="round" stroke-miterlimit="4" stroke-width="2.6" d="M16 21.333l5.333-5.333-5.333-5.333"></path>
            <path stroke-linejoin="round" stroke-linecap="round" stroke-miterlimit="4" stroke-width="2.6" d="M2.666 16h18.667"></path>
        </symbol>
        <symbol id="icon-avatar" viewBox="0 0 48 48">
            <path d="M43.2975 39.75C40.4419 34.8131 36.0413 31.2731 30.9056 29.595C33.446 28.0827 35.4196 25.7784 36.5235 23.0358C37.6275 20.2933 37.8006 17.2642 37.0164 14.4138C36.2322 11.5633 34.5339 9.04909 32.1825 7.25721C29.831 5.46533 26.9564 4.49487 24 4.49487C21.0436 4.49487 18.169 5.46533 15.8176 7.25721C13.4661 9.04909 11.7679 11.5633 10.9837 14.4138C10.1994 17.2642 10.3726 20.2933 11.4765 23.0358C12.5804 25.7784 14.5541 28.0827 17.0944 29.595C11.9588 31.2712 7.55814 34.8112 4.70252 39.75C4.5978 39.9207 4.52834 40.1107 4.49824 40.3088C4.46813 40.5068 4.478 40.7088 4.52725 40.903C4.5765 41.0972 4.66415 41.2795 4.785 41.4392C4.90586 41.599 5.05749 41.7329 5.23094 41.8331C5.40439 41.9333 5.59615 41.9977 5.79491 42.0226C5.99367 42.0474 6.19539 42.0323 6.38818 41.9779C6.58098 41.9236 6.76093 41.8311 6.91743 41.7061C7.07393 41.5811 7.20381 41.426 7.29939 41.25C10.8319 35.145 17.0756 31.5 24 31.5C30.9244 31.5 37.1681 35.145 40.7006 41.25C40.7962 41.426 40.9261 41.5811 41.0826 41.7061C41.2391 41.8311 41.4191 41.9236 41.6119 41.9779C41.8046 42.0323 42.0064 42.0474 42.2051 42.0226C42.4039 41.9977 42.5956 41.9333 42.7691 41.8331C42.9425 41.7329 43.0942 41.599 43.215 41.4392C43.3359 41.2795 43.4235 41.0972 43.4728 40.903C43.522 40.7088 43.5319 40.5068 43.5018 40.3088C43.4717 40.1107 43.4022 39.9207 43.2975 39.75ZM13.5 18C13.5 15.9233 14.1158 13.8932 15.2696 12.1665C16.4233 10.4398 18.0632 9.09396 19.9818 8.29924C21.9005 7.50452 24.0117 7.29658 26.0485 7.70173C28.0853 8.10687 29.9562 9.1069 31.4246 10.5754C32.8931 12.0438 33.8931 13.9147 34.2983 15.9515C34.7034 17.9883 34.4955 20.0995 33.7008 22.0182C32.906 23.9368 31.5602 25.5766 29.8335 26.7304C28.1068 27.8842 26.0767 28.5 24 28.5C21.2162 28.497 18.5472 27.3898 16.5787 25.4213C14.6102 23.4528 13.503 20.7838 13.5 18Z" fill="#3E85F3" fill-opacity="0.18"/>
        </symbol>
        <symbol id="icon-check" viewBox="0 0 32 32">
            <path style="fill: var(--color1, #3cbc81)" d="M13.76 18.88l-3.48-3.48c-0.293-0.293-0.66-0.433-1.099-0.419-0.441 0.013-0.807 0.166-1.101 0.459s-0.44 0.667-0.44 1.12c0 0.453 0.147 0.827 0.44 1.12l4.56 4.56c0.293 0.293 0.667 0.44 1.12 0.44s0.827-0.147 1.12-0.44l9.080-9.080c0.293-0.293 0.434-0.66 0.421-1.101-0.014-0.439-0.168-0.806-0.461-1.099s-0.667-0.44-1.12-0.44c-0.453 0-0.827 0.147-1.12 0.44l-7.92 7.92zM16 32c-2.213 0-4.293-0.42-6.24-1.261s-3.64-1.979-5.080-3.419-2.58-3.133-3.419-5.080c-0.841-1.947-1.261-4.027-1.261-6.24s0.42-4.293 1.261-6.24c0.839-1.947 1.979-3.64 3.419-5.080s3.133-2.58 5.080-3.421c1.947-0.839 4.027-1.259 6.24-1.259s4.293 0.42 6.24 1.259c1.947 0.841 3.64 1.981 5.080 3.421s2.58 3.133 3.419 5.080c0.84 1.947 1.261 4.027 1.261 6.24s-0.42 4.293-1.261 6.24c-0.84 1.947-1.979 3.64-3.419 5.080s-3.133 2.58-5.080 3.419c-1.947 0.84-4.027 1.261-6.24 1.261zM16 28.8c3.547 0 6.567-1.246 9.061-3.739 2.493-2.494 3.739-5.514 3.739-9.061s-1.246-6.567-3.739-9.061c-2.494-2.493-5.514-3.739-9.061-3.739s-6.566 1.246-9.059 3.739c-2.494 2.494-3.741 5.514-3.741 9.061s1.247 6.567 3.741 9.061c2.493 2.493 5.513 3.739 9.059 3.739z"></path>
        </symbol>
        <symbol id="icon-alert" viewBox="0 0 32 32">
            <path style="fill: var(--color2, #e74a3b)" d="M14.4 20.8h3.2v3.2h-3.2v-3.2zM14.4 8h3.2v9.6h-3.2v-9.6zM15.984 0c-8.832 0-15.984 7.168-15.984 16s7.152 16 15.984 16c8.848 0 16.016-7.168 16.016-16s-7.168-16-16.016-16zM16 28.8c-7.072 0-12.8-5.728-12.8-12.8s5.728-12.8 12.8-12.8c7.072 0 12.8 5.728 12.8 12.8s-5.728 12.8-12.8 12.8z"></path>
        </symbol>
</defs>
</svg>