<svg aria-hidden="true" version="1.1" xmlns="http://www.w3.org/2000/svg" xmlns:xlink="http://www.w3.org/1999/xlink">
    <defs>
        <symbol id="icon-plus-clear" viewBox="0 0 24 24">
            <path d="M12 5V19M5 12H19" stroke="#111111" stroke-width="2" stroke-linecap="round" stroke-linejoin="round"/>
        </symbol>
        <symbol id="icon-plus-circle" viewBox="0 0 22 22">
            <path d="M11 7V15M7 11H15M21 11C21 16.5228 16.5228 21 11 21C5.47715 21 1 16.5228 1 11C1 5.47715 5.47715 1 11 1C16.5228 1 21 5.47715 21 11Z" stroke="#111111" stroke-width="2" stroke-linecap="round" stroke-linejoin="round"/>
        </symbol>
        <symbol id="icon-trash" viewBox="0 0 16 16">
            <path d="M6 2H10" stroke="#111111" stroke-width="1.3" stroke-linecap="round" stroke-linejoin="round"/>
            <path d="M2 4H14" stroke="#111111" stroke-width="1.3" stroke-linecap="round" stroke-linejoin="round"/>
            <path d="M3.33334 4L3.73393 10.0089C3.80831 11.1245 3.8455 11.6823 4.0278 12.1304C4.35879 12.9441 5.02973 13.5718 5.86358 13.8479C6.32286 14 6.88191 14 8.00001 14V14C9.11811 14 9.67716 14 10.1364 13.8479C10.9703 13.5718 11.6412 12.9441 11.9722 12.1304C12.1545 11.6823 12.1917 11.1245 12.2661 10.0089L12.6667 4" stroke="#111111" stroke-width="1.3" stroke-linecap="round" stroke-linejoin="round"/>
        </symbol>
        <symbol id="icon-pencil" viewBox="0 0 16 16">
            <path d="M1.66664 14.3333L5.36615 12.9104C5.60278 12.8194 5.72109 12.7739 5.83179 12.7145C5.93011 12.6617 6.02384 12.6008 6.112 12.5324C6.21126 12.4554 6.30089 12.3657 6.48016 12.1865L14 4.66665C14.7364 3.93027 14.7364 2.73636 14 1.99998C13.2636 1.2636 12.0697 1.2636 11.3333 1.99998L3.8135 9.51979C3.63423 9.69906 3.54459 9.7887 3.46757 9.88795C3.39916 9.97611 3.33824 10.0698 3.28546 10.1682C3.22605 10.2789 3.18054 10.3972 3.08953 10.6338L1.66664 14.3333ZM1.66664 14.3333L3.03872 10.766C3.13691 10.5107 3.186 10.383 3.2702 10.3246C3.34379 10.2735 3.43484 10.2542 3.52284 10.271C3.62353 10.2902 3.72023 10.3869 3.91363 10.5803L5.41969 12.0863C5.61309 12.2797 5.70979 12.3764 5.72902 12.4771C5.74582 12.5651 5.7265 12.6562 5.67541 12.7298C5.61694 12.814 5.4893 12.8631 5.23402 12.9613L1.66664 14.3333Z" stroke="#111111" stroke-width="1.3" stroke-linecap="round" stroke-linejoin="round"/>
        </symbol>
        <symbol id="icon-arrow-circle-broken-right" viewBox="0 0 16 16">
            <g clip-path="url(#clip0_36_613)">
                <path d="M2.22527 4.66665C3.37796 2.67398 5.53244 1.33331 8.00005 1.33331C11.682 1.33331 14.6667 4.31808 14.6667 7.99998C14.6667 11.6819 11.682 14.6666 8.00005 14.6666C5.53244 14.6666 3.37796 13.326 2.22527 11.3333" stroke="#3E85F3" stroke-width="1.3" stroke-linecap="round" stroke-linejoin="round"/>
                <path d="M8 10.6666L10.6667 7.99998L8 5.33331" stroke="#3E85F3" stroke-width="1.3" stroke-linecap="round" stroke-linejoin="round"/>
                <path d="M1.33333 8L10.6667 8" stroke="#3E85F3" stroke-width="1.3" stroke-linecap="round" stroke-linejoin="round"/>
            </g>
            <defs>
                <clipPath id="clip0_36_613">
                    <rect width="16" height="16" fill="white"/>
                </clipPath>
            </defs>
        </symbol>
        <symbol id="icon-avatar" viewBox="0 0 48 48">
            <path d="M43.2975 39.75C40.4419 34.8131 36.0413 31.2731 30.9056 29.595C33.446 28.0827 35.4196 25.7784 36.5235 23.0358C37.6275 20.2933 37.8006 17.2642 37.0164 14.4138C36.2322 11.5633 34.5339 9.04909 32.1825 7.25721C29.831 5.46533 26.9564 4.49487 24 4.49487C21.0436 4.49487 18.169 5.46533 15.8176 7.25721C13.4661 9.04909 11.7679 11.5633 10.9837 14.4138C10.1994 17.2642 10.3726 20.2933 11.4765 23.0358C12.5804 25.7784 14.5541 28.0827 17.0944 29.595C11.9588 31.2712 7.55814 34.8112 4.70252 39.75C4.5978 39.9207 4.52834 40.1107 4.49824 40.3088C4.46813 40.5068 4.478 40.7088 4.52725 40.903C4.5765 41.0972 4.66415 41.2795 4.785 41.4392C4.90586 41.599 5.05749 41.7329 5.23094 41.8331C5.40439 41.9333 5.59615 41.9977 5.79491 42.0226C5.99367 42.0474 6.19539 42.0323 6.38818 41.9779C6.58098 41.9236 6.76093 41.8311 6.91743 41.7061C7.07393 41.5811 7.20381 41.426 7.29939 41.25C10.8319 35.145 17.0756 31.5 24 31.5C30.9244 31.5 37.1681 35.145 40.7006 41.25C40.7962 41.426 40.9261 41.5811 41.0826 41.7061C41.2391 41.8311 41.4191 41.9236 41.6119 41.9779C41.8046 42.0323 42.0064 42.0474 42.2051 42.0226C42.4039 41.9977 42.5956 41.9333 42.7691 41.8331C42.9425 41.7329 43.0942 41.599 43.215 41.4392C43.3359 41.2795 43.4235 41.0972 43.4728 40.903C43.522 40.7088 43.5319 40.5068 43.5018 40.3088C43.4717 40.1107 43.4022 39.9207 43.2975 39.75ZM13.5 18C13.5 15.9233 14.1158 13.8932 15.2696 12.1665C16.4233 10.4398 18.0632 9.09396 19.9818 8.29924C21.9005 7.50452 24.0117 7.29658 26.0485 7.70173C28.0853 8.10687 29.9562 9.1069 31.4246 10.5754C32.8931 12.0438 33.8931 13.9147 34.2983 15.9515C34.7034 17.9883 34.4955 20.0995 33.7008 22.0182C32.906 23.9368 31.5602 25.5766 29.8335 26.7304C28.1068 27.8842 26.0767 28.5 24 28.5C21.2162 28.497 18.5472 27.3898 16.5787 25.4213C14.6102 23.4528 13.503 20.7838 13.5 18Z" fill="#3E85F3" fill-opacity="0.18"/>
        </symbol>
</defs>
</svg>